<svg xmlns="http://www.w3.org/2000/svg" width="37" height="39" viewBox="0 0 37 39" fill="none">
  <path d="M18.5546 0C8.39029 0 0.109375 8.28091 0.109375 18.4614C0.109375 23.1053 1.79798 27.473 4.8993 30.8828L3.56786 37.0041C3.27478 38.396 4.73976 39.4133 5.93849 38.7739L11.7351 35.6077C13.8783 36.4683 16.1678 36.9067 18.5546 36.9067C28.7189 36.9067 36.9998 28.642 36.9998 18.4614C36.9998 8.28092 28.7189 0 18.5546 0ZM19.6912 28.0575C19.0394 28.7093 18.0117 28.6675 17.4018 28.0575C16.746 27.3653 16.761 26.4088 17.4018 25.7681C18.0132 25.1566 19.0163 25.0932 19.6912 25.7681C20.2437 26.3206 20.4077 27.341 19.6912 28.0575ZM20.844 19.4195C20.5193 19.5494 20.1782 19.8254 20.1782 20.2476V21.238C20.1782 22.131 19.4477 22.8617 18.5546 22.8617C17.6453 22.8617 16.9309 22.131 16.9309 21.238V20.2476C16.9309 18.5588 18.0026 17.0488 19.6587 16.3994C21.0226 15.8636 21.8019 14.4672 21.5585 13.0058C21.3636 11.8043 20.3569 10.7814 19.1553 10.554C17.1977 10.1763 15.502 11.6532 15.502 13.5417C15.502 14.4347 14.7714 15.1654 13.8783 15.1654C12.9853 15.1654 12.2546 14.4347 12.2546 13.5417C12.2546 9.56985 15.8748 6.60966 19.7723 7.3554C22.2891 7.84249 24.3512 9.95327 24.7733 12.47C25.2604 15.4576 23.653 18.3154 20.844 19.4195Z" fill="url(#paint0_linear_2174_2446)"/>
  <defs>
    <linearGradient id="paint0_linear_2174_2446" x1="3.43603" y1="-35.6427" x2="24.5771" y2="46.3765" gradientUnits="userSpaceOnUse">
      <stop stop-color="#55E0FF"/>
      <stop offset="1" stop-color="#5096FE"/>
    </linearGradient>
  </defs>
</svg>