<svg xmlns="http://www.w3.org/2000/svg" width="16" height="16" viewBox="0 0 16 16" fill="none">
  <path d="M0.655405 15.4202C0.908784 15.6736 1.23818 15.8003 1.54223 15.8003C1.84628 15.8003 2.20101 15.6736 2.42905 15.4202L7.75 10.098L13.0709 15.4202C13.3243 15.6736 13.6537 15.8003 13.9578 15.8003C14.2618 15.8003 14.6166 15.6736 14.8446 15.4202C15.3513 14.9133 15.3513 14.1276 14.8446 13.6208L9.52365 8.29859L14.8446 2.97643C15.3513 2.46956 15.3513 1.6839 14.8446 1.17703C14.3378 0.670157 13.5524 0.670157 13.0456 1.17703L7.72466 6.49919L2.42905 1.22772C1.9223 0.720844 1.13682 0.720844 0.630068 1.22772C0.123311 1.73459 0.123311 2.52024 0.630068 3.02712L5.95101 8.34928L0.655405 13.6461C0.148649 14.1276 0.148649 14.9386 0.655405 15.4202Z" fill="black"/>
</svg>