<svg xmlns="http://www.w3.org/2000/svg" width="25" height="22" viewBox="0 0 25 22" fill="none">
  <path d="M24.5 0H0.5C0.225006 0 0 0.227174 0 0.504818V17.6283C0 17.9109 0.225006 18.1331 0.5 18.1331H4.97L3.70001 21.3033C3.625 21.5002 3.67499 21.7274 3.82999 21.8687C3.92001 21.9546 4.04501 22 4.16501 22C4.245 22 4.32001 21.9798 4.39499 21.9445L11.745 18.1331H24.5C24.775 18.1331 25 17.9109 25 17.6283V0.504818C25 0.227174 24.775 0 24.5 0ZM6.60501 10.9293C5.505 10.9293 4.60501 10.0257 4.60501 8.91006C4.60501 7.79945 5.505 6.89078 6.60501 6.89078C7.70999 6.89078 8.60501 7.79945 8.60501 8.91006C8.60501 10.0257 7.70999 10.9293 6.60501 10.9293ZM12.5 10.9293C11.395 10.9293 10.5 10.0257 10.5 8.91006C10.5 7.79945 11.395 6.89078 12.5 6.89078C13.605 6.89078 14.5 7.79945 14.5 8.91006C14.5 10.0257 13.605 10.9293 12.5 10.9293ZM18.395 10.9293C17.29 10.9293 16.395 10.0257 16.395 8.91006C16.395 7.79945 17.29 6.89078 18.395 6.89078C19.495 6.89078 20.395 7.79945 20.395 8.91006C20.395 10.0257 19.495 10.9293 18.395 10.9293Z" fill="black"/>
</svg>