<svg xmlns="http://www.w3.org/2000/svg" width="19" height="17" viewBox="0 0 19 17" fill="none">
  <path d="M18.625 0.5H0.625C0.418755 0.5 0.25 0.670381 0.25 0.878614V13.7212C0.25 13.9332 0.418755 14.0998 0.625 14.0998H3.9775L3.02501 16.4775C2.96875 16.6252 3.00624 16.7955 3.12249 16.9016C3.19001 16.9659 3.28376 17 3.37376 17C3.43375 17 3.49001 16.9848 3.54624 16.9584L9.05875 14.0998H18.625C18.8312 14.0998 19 13.9332 19 13.7212V0.878614C19 0.670381 18.8312 0.5 18.625 0.5ZM5.20376 8.697C4.37875 8.697 3.70376 8.01927 3.70376 7.18254C3.70376 6.34959 4.37875 5.66809 5.20376 5.66809C6.03249 5.66809 6.70376 6.34959 6.70376 7.18254C6.70376 8.01927 6.03249 8.697 5.20376 8.697ZM9.625 8.697C8.79624 8.697 8.125 8.01927 8.125 7.18254C8.125 6.34959 8.79624 5.66809 9.625 5.66809C10.4538 5.66809 11.125 6.34959 11.125 7.18254C11.125 8.01927 10.4538 8.697 9.625 8.697ZM14.0462 8.697C13.2175 8.697 12.5462 8.01927 12.5462 7.18254C12.5462 6.34959 13.2175 5.66809 14.0462 5.66809C14.8712 5.66809 15.5462 6.34959 15.5462 7.18254C15.5462 8.01927 14.8712 8.697 14.0462 8.697Z" fill="white"/>
</svg>