<svg xmlns="http://www.w3.org/2000/svg" width="30" height="21" viewBox="0 0 30 21" fill="none">
  <path fill-rule="evenodd" clip-rule="evenodd" d="M11.6571 0C8.43811 0 5.82857 2.60954 5.82857 5.82857C5.82857 6.79071 6.0617 7.69838 6.47455 8.4982C2.63708 10.406 0 14.3666 0 18.9429C0 19.7476 0.652392 20.4 1.45714 20.4C2.26189 20.4 2.91429 19.7476 2.91429 18.9429C2.91429 15.2059 5.2589 12.0165 8.55736 10.7654C9.45521 11.3303 10.518 11.6571 11.6571 11.6571C12.7963 11.6571 13.859 11.3303 14.7569 10.7654C18.0553 12.0165 20.4 15.2059 20.4 18.9429C20.4 19.7476 21.0524 20.4 21.8571 20.4C22.6619 20.4 23.3143 19.7476 23.3143 18.9429C23.3143 14.3666 20.6771 10.406 16.8398 8.4982C17.2526 7.69838 17.4857 6.79071 17.4857 5.82857C17.4857 2.60954 14.8761 0 11.6571 0ZM8.74286 5.82857C8.74286 4.21906 10.0476 2.91429 11.6571 2.91429C13.2667 2.91429 14.5714 4.21906 14.5714 5.82857C14.5714 7.43813 13.2667 8.74286 11.6571 8.74286C10.0476 8.74286 8.74286 7.43813 8.74286 5.82857Z" fill="black"/>
  <path d="M24.7718 11.6574C23.967 11.6574 23.3147 11.005 23.3147 10.2003V8.74312H21.8575C21.0528 8.74312 20.4004 8.09076 20.4004 7.28598C20.4004 6.48121 21.0528 5.82884 21.8575 5.82884H23.3147V4.37169C23.3147 3.56694 23.967 2.91455 24.7718 2.91455C25.5766 2.91455 26.229 3.56693 26.229 4.37169V5.82884H27.6861C28.4909 5.82884 29.1432 6.48123 29.1432 7.28598C29.1432 8.09076 28.4909 8.74312 27.6861 8.74312H26.229V10.2003C26.229 11.005 25.5766 11.6574 24.7718 11.6574Z" fill="black"/>
</svg>