<svg xmlns="http://www.w3.org/2000/svg" width="25" height="18" viewBox="0 0 25 18" fill="none">
  <path fill-rule="evenodd" clip-rule="evenodd" d="M9.85 0.25C7.19903 0.25 5.05 2.39903 5.05 5.05C5.05 5.84235 5.24199 6.58984 5.58198 7.24852C2.42171 8.81968 0.25 12.0813 0.25 15.85C0.25 16.5128 0.787264 17.05 1.45 17.05C2.11274 17.05 2.65 16.5128 2.65 15.85C2.65 12.7725 4.58086 10.1459 7.29724 9.1156C8.03664 9.58084 8.9119 9.85 9.85 9.85C10.7882 9.85 11.6633 9.58084 12.4028 9.1156C15.1191 10.1459 17.05 12.7725 17.05 15.85C17.05 16.5128 17.5872 17.05 18.25 17.05C18.9128 17.05 19.45 16.5128 19.45 15.85C19.45 12.0813 17.2782 8.81968 14.118 7.24852C14.458 6.58984 14.65 5.84235 14.65 5.05C14.65 2.39903 12.5009 0.25 9.85 0.25ZM7.45 5.05C7.45 3.72452 8.52452 2.65 9.85 2.65C11.1755 2.65 12.25 3.72452 12.25 5.05C12.25 6.37552 11.1755 7.45 9.85 7.45C8.52452 7.45 7.45 6.37552 7.45 5.05Z" fill="white"/>
  <path d="M20.6469 9.85039C19.9841 9.85039 19.4469 9.31315 19.4469 8.65039V7.45039H18.2469C17.5841 7.45039 17.0469 6.91315 17.0469 6.25039C17.0469 5.58764 17.5841 5.05039 18.2469 5.05039H19.4469V3.85039C19.4469 3.18765 19.9841 2.65039 20.6469 2.65039C21.3096 2.65039 21.8469 3.18764 21.8469 3.85039V5.05039H23.0469C23.7096 5.05039 24.2469 5.58765 24.2469 6.25039C24.2469 6.91315 23.7096 7.45039 23.0469 7.45039H21.8469V8.65039C21.8469 9.31315 21.3096 9.85039 20.6469 9.85039Z" fill="white"/>
</svg>