<svg xmlns="http://www.w3.org/2000/svg" width="48" height="40" viewBox="0 0 48 40" fill="none">
  <path d="M46.7013 20.8063C45.4102 17.7774 40.7924 18.2243 38.9552 18.7705C38.1607 19.0188 37.6145 19.4657 37.118 20.0119C36.6215 20.5581 31.7553 25.5731 31.7553 25.5731L25.9955 27.7579C24.6051 28.3041 23.8603 29.8434 24.4065 31.2833C24.8038 32.3757 25.8465 33.0212 26.9389 33.0212C27.2368 33.0212 27.5844 32.9716 27.8823 32.8226L34.2381 30.3896C34.6353 30.2406 34.9332 30.042 35.2311 29.7441L35.678 29.2475C35.7277 32.4751 36.1746 37.9867 36.2242 38.2846C36.2739 38.7811 36.5221 39.0791 37.118 39.0791C37.7138 39.0791 45.6585 39.0791 46.8999 39.0791C47.3964 39.0791 47.744 38.6818 47.744 38.1853C47.8433 32.3261 48.0916 24.0338 46.7013 20.8063Z" fill="url(#paint0_linear_2174_2452)"/>
  <path d="M41.0444 16.9815C44.3352 16.9815 47.0029 14.3137 47.0029 11.023C47.0029 7.73216 44.3352 5.06445 41.0444 5.06445C37.7536 5.06445 35.0859 7.73216 35.0859 11.023C35.0859 14.3137 37.7536 16.9815 41.0444 16.9815Z" fill="url(#paint1_linear_2174_2452)"/>
  <path d="M7.47413 16.9815C10.7649 16.9815 13.4326 14.3137 13.4326 11.023C13.4326 7.73216 10.7649 5.06445 7.47413 5.06445C4.18334 5.06445 1.51562 7.73216 1.51562 11.023C1.51562 14.3137 4.18334 16.9815 7.47413 16.9815Z" fill="url(#paint2_linear_2174_2452)"/>
  <path d="M25.8953 22.2942C25.2001 20.9535 23.5615 20.4073 22.2209 21.1025L17.1561 23.6845C17.1561 23.6845 14.3259 21.748 13.4321 21.0528C12.8362 20.6556 11.1976 19.3149 9.55906 18.7191C7.77151 18.1232 3.10401 17.726 1.813 20.7549C0.422686 24.0321 0.670957 32.3243 0.720611 38.2332C0.720611 38.7297 1.06819 39.127 1.56473 39.127C2.80609 39.127 10.7508 39.127 11.3466 39.127C11.9425 39.127 12.1411 38.7794 12.2404 38.3325C12.29 38.0346 12.8362 31.3313 12.7866 28.352C12.7866 28.0541 12.7866 27.7065 12.7866 27.3093L15.3686 29.0472C15.8155 29.3451 16.3617 29.4941 16.9079 29.4941C17.3548 29.4941 17.752 29.3947 18.1492 29.1961L24.6539 25.8693C26.0442 25.2735 26.5408 23.6349 25.8953 22.2942Z" fill="url(#paint3_linear_2174_2452)"/>
  <path d="M18.8927 10.8246C18.6941 11.3708 18.3465 12.1156 17.6017 12.9597C17.1052 13.5059 17.701 14.3004 18.3465 14.0521C19.7368 13.5059 21.3754 12.8108 22.865 12.066C23.3119 12.1156 23.7588 12.1653 24.2554 12.1653C28.9725 12.1653 32.7959 9.43429 32.7959 6.05781C32.7959 2.68132 28.9725 0 24.2554 0C19.5382 0 15.7148 2.73098 15.7148 6.10746C15.7148 7.99432 16.9562 9.73222 18.8927 10.8246ZM21.0775 5.36265C21.0775 5.26334 21.1768 5.16403 21.2761 5.16403H23.3616V3.07856C23.3616 2.97925 23.4609 2.87994 23.5602 2.87994H24.9505C25.0498 2.87994 25.1491 2.97925 25.1491 3.07856V5.16403H27.2346C27.3339 5.16403 27.4332 5.26334 27.4332 5.36265V6.75297C27.4332 6.85228 27.3339 6.95158 27.2346 6.95158H25.1491V9.03706C25.1491 9.13637 25.0498 9.23568 24.9505 9.23568H23.5602C23.4609 9.23568 23.3616 9.13637 23.3616 9.03706V6.95158H21.2761C21.1768 6.95158 21.0775 6.85228 21.0775 6.75297V5.36265Z" fill="url(#paint4_linear_2174_2452)"/>
  <defs>
    <linearGradient id="paint0_linear_2174_2452" x1="26.3547" y1="-0.559769" x2="35.8658" y2="43.8733" gradientUnits="userSpaceOnUse">
      <stop stop-color="#55E0FF"/>
      <stop offset="1" stop-color="#5096FE"/>
    </linearGradient>
    <linearGradient id="paint1_linear_2174_2452" x1="36.1606" y1="-5.83524" x2="42.3206" y2="19.4099" gradientUnits="userSpaceOnUse">
      <stop stop-color="#55E0FF"/>
      <stop offset="1" stop-color="#5096FE"/>
    </linearGradient>
    <linearGradient id="paint2_linear_2174_2452" x1="2.59026" y1="-5.83524" x2="8.75024" y2="19.4099" gradientUnits="userSpaceOnUse">
      <stop stop-color="#55E0FF"/>
      <stop offset="1" stop-color="#5096FE"/>
    </linearGradient>
    <linearGradient id="paint3_linear_2174_2452" x1="2.97164" y1="-0.74382" x2="11.9288" y2="44.2124" gradientUnits="userSpaceOnUse">
      <stop stop-color="#55E0FF"/>
      <stop offset="1" stop-color="#5096FE"/>
    </linearGradient>
    <linearGradient id="paint4_linear_2174_2452" x1="17.2552" y1="-12.8954" x2="23.3803" y2="17.5166" gradientUnits="userSpaceOnUse">
      <stop stop-color="#55E0FF"/>
      <stop offset="1" stop-color="#5096FE"/>
    </linearGradient>
  </defs>
</svg>