<svg xmlns="http://www.w3.org/2000/svg" width="19" height="15" viewBox="0 0 19 15" fill="none">
  <path d="M16.0948 1.25623C14.8465 0.660909 13.5287 0.238571 12.175 0C11.9897 0.344938 11.8221 0.699833 11.6728 1.0632C10.2309 0.836865 8.76455 0.836865 7.32261 1.0632C7.17325 0.699871 7.00565 0.34498 6.82048 0C5.46593 0.240585 4.14723 0.663926 2.89765 1.25934C0.416927 5.0825 -0.255559 8.81071 0.0806839 12.486C1.53346 13.6041 3.15953 14.4544 4.88821 15C5.27746 14.4547 5.62189 13.8761 5.91786 13.2705C5.35571 13.0518 4.81314 12.782 4.29642 12.4642C4.43241 12.3615 4.56542 12.2556 4.69394 12.1529C6.19746 12.8894 7.83848 13.2713 9.49997 13.2713C11.1615 13.2713 12.8025 12.8894 14.306 12.1529C14.436 12.2634 14.569 12.3692 14.7035 12.4642C14.1858 12.7825 13.6422 13.0529 13.0791 13.2721C13.3747 13.8774 13.7191 14.4555 14.1087 15C15.8389 14.4566 17.4662 13.6067 18.9192 12.4875C19.3138 8.2254 18.2453 4.53144 16.0948 1.25623ZM6.34377 10.2257C5.40677 10.2257 4.63266 9.33997 4.63266 8.25031C4.63266 7.16065 5.37987 6.26712 6.34078 6.26712C7.30169 6.26712 8.06981 7.16065 8.05338 8.25031C8.03694 9.33997 7.2987 10.2257 6.34377 10.2257ZM12.6562 10.2257C11.7177 10.2257 10.9466 9.33997 10.9466 8.25031C10.9466 7.16065 11.6938 6.26712 12.6562 6.26712C13.6186 6.26712 14.3807 7.16065 14.3643 8.25031C14.3478 9.33997 13.6111 10.2257 12.6562 10.2257Z" fill="#0386FF"/>
</svg>