<svg xmlns="http://www.w3.org/2000/svg" width="146" height="36" viewBox="0 0 146 36" fill="none">
  <path fill-rule="evenodd" clip-rule="evenodd" d="M35.1721 11.9733C36.0536 11.3894 36.7059 10.4619 36.9127 9.33988C37.3166 7.14788 35.8671 5.04347 33.6751 4.63955C32.0083 4.33242 30.3923 5.09686 29.5359 6.44449L22.7349 16.1133L22.7394 16.1176C22.5462 16.3674 22.408 16.6658 22.3469 16.9977C22.1421 18.1088 22.8768 19.1754 23.9878 19.3801C24.626 19.4977 25.2495 19.3054 25.7034 18.9098L25.7036 18.91L35.1721 11.9733Z" fill="url(#paint0_linear_467_3957)"/>
  <path fill-rule="evenodd" clip-rule="evenodd" d="M9.42068 28.266C8.69404 28.7673 8.16582 29.5535 8.01602 30.4941C7.7254 32.3189 8.96911 34.0338 10.7939 34.3244C12.1649 34.5427 13.4738 33.895 14.1633 32.7855L19.6328 24.5938L19.6261 24.5878C19.7805 24.3773 19.8885 24.1279 19.9324 23.8523C20.0797 22.9274 19.4493 22.0582 18.5244 21.9109C17.9824 21.8246 17.4595 22.0054 17.0898 22.356L9.42068 28.266Z" fill="url(#paint1_linear_467_3957)"/>
  <path fill-rule="evenodd" clip-rule="evenodd" d="M3.38735 11.5955C2.4484 11.0044 1.71094 10.0841 1.36705 8.93794C0.612053 6.42161 2.0399 3.76968 4.55622 3.01469C6.50288 2.43062 8.53068 3.15291 9.69861 4.6749L18.8437 15.0543L18.8414 15.057C19.1009 15.3251 19.3018 15.6577 19.4164 16.0397C19.7991 17.3151 19.0754 18.6593 17.8 19.0419C17.0665 19.262 16.3103 19.1161 15.7273 18.7098L15.7249 18.7126L3.60451 11.7244C3.56568 11.7027 3.52714 11.6805 3.48892 11.6577L3.38529 11.598L3.38735 11.5955Z" fill="url(#paint2_linear_467_3957)"/>
  <path fill-rule="evenodd" clip-rule="evenodd" d="M29.6863 25.7041C30.1794 25.9887 30.5617 26.4644 30.7128 27.0599C31.01 28.2304 30.302 29.4201 29.1315 29.7173C28.24 29.9436 27.3372 29.5868 26.8263 28.8866L22.8061 23.9089C22.8052 23.9079 22.8053 23.9064 22.8062 23.9054C22.8071 23.9043 22.8072 23.9028 22.8062 23.9017C22.6939 23.7742 22.6094 23.6187 22.5647 23.4427C22.4141 22.8494 22.7729 22.2464 23.3662 22.0958C23.7106 22.0084 24.0583 22.0926 24.3189 22.2948L29.6863 25.7041Z" fill="url(#paint3_linear_467_3957)"/>
  <path d="M139.651 25.6583C139.159 25.6583 138.774 25.5161 138.497 25.2318C138.219 24.9404 138.08 24.5382 138.08 24.0249V13.049H134.98C134.557 13.049 134.214 12.9345 133.95 12.7057C133.687 12.4698 133.555 12.1508 133.555 11.7485C133.555 11.3393 133.683 11.0203 133.94 10.7914C134.203 10.5625 134.55 10.4481 134.98 10.4481H144.333C144.763 10.4481 145.106 10.5625 145.363 10.7914C145.62 11.0203 145.748 11.3393 145.748 11.7485C145.748 12.1508 145.616 12.4698 145.353 12.7057C145.096 12.9345 144.756 13.049 144.333 13.049H141.222V24.0249C141.222 24.5382 141.084 24.9404 140.806 25.2318C140.529 25.5161 140.144 25.6583 139.651 25.6583Z" fill="url(#paint4_linear_467_3957)"/>
  <path d="M122.896 25.6583C122.403 25.6583 122.019 25.5161 121.741 25.2318C121.464 24.9404 121.325 24.5382 121.325 24.0249V12.0814C121.325 11.5613 121.464 11.159 121.741 10.8746C122.019 10.5902 122.403 10.4481 122.896 10.4481H127.432C128.465 10.4481 129.37 10.6631 130.147 11.0931C130.924 11.5162 131.531 12.1127 131.968 12.8825C132.412 13.6524 132.634 14.5541 132.634 15.5875C132.634 16.614 132.405 17.5157 131.947 18.2925C131.496 19.0623 130.869 19.6623 130.064 20.0923C129.26 20.5154 128.33 20.7269 127.276 20.7269H124.467V24.0249C124.467 24.5382 124.328 24.9404 124.051 25.2318C123.773 25.5161 123.388 25.6583 122.896 25.6583ZM124.467 18.2717H126.589C127.491 18.2717 128.191 18.0393 128.691 17.5746C129.19 17.1099 129.44 16.451 129.44 15.5979C129.44 14.7448 129.19 14.0894 128.691 13.6316C128.198 13.1669 127.501 12.9345 126.6 12.9345H124.467V18.2717Z" fill="url(#paint5_linear_467_3957)"/>
  <path d="M112.581 25.7101C111.09 25.7101 109.803 25.4014 108.721 24.7841C107.639 24.1599 106.807 23.2652 106.224 22.1C105.641 20.9278 105.35 19.5303 105.35 17.9073C105.35 16.2982 105.638 14.9179 106.214 13.7666C106.796 12.6152 107.622 11.7309 108.69 11.1136C109.765 10.4964 111.038 10.1877 112.508 10.1877C113.472 10.1877 114.353 10.3264 115.15 10.6039C115.948 10.8813 116.635 11.2628 117.21 11.7483C117.786 12.2268 118.213 12.7713 118.49 13.3817C118.58 13.562 118.639 13.7319 118.667 13.8914C118.702 14.044 118.719 14.1966 118.719 14.3492C118.719 14.7515 118.591 15.0775 118.334 15.3272C118.084 15.5768 117.755 15.7017 117.346 15.7017C116.708 15.7017 116.201 15.3965 115.827 14.7862C115.577 14.3353 115.289 13.9643 114.963 13.673C114.644 13.3817 114.28 13.1632 113.871 13.0175C113.462 12.8649 113.011 12.7886 112.518 12.7886C111.693 12.7886 110.982 12.9898 110.386 13.3921C109.796 13.7943 109.342 14.3735 109.023 15.1295C108.711 15.8855 108.555 16.7975 108.555 17.8657C108.555 18.9477 108.721 19.884 109.054 20.6747C109.387 21.4584 109.858 22.0618 110.469 22.4849C111.079 22.9011 111.8 23.1091 112.633 23.1091C113.312 23.1091 113.916 22.9808 114.443 22.7242C114.97 22.4606 115.383 22.093 115.681 21.6214C115.986 21.1498 116.149 20.6053 116.17 19.988L116.18 19.7487H113.996C113.621 19.7487 113.316 19.6482 113.08 19.447C112.851 19.239 112.737 18.9581 112.737 18.6043C112.737 18.2437 112.851 17.9628 113.08 17.7616C113.316 17.5605 113.621 17.4599 113.996 17.4599H117.668C118.161 17.4599 118.546 17.6021 118.823 17.8865C119.1 18.1708 119.239 18.5731 119.239 19.0933C119.239 19.1349 119.239 19.1765 119.239 19.2181C119.239 19.2528 119.239 19.2875 119.239 19.3222C119.239 20.5914 118.976 21.7081 118.448 22.6722C117.928 23.6293 117.172 24.3749 116.18 24.909C115.196 25.443 113.996 25.7101 112.581 25.7101Z" fill="url(#paint6_linear_467_3957)"/>
  <path d="M95.8847 29.5902C95.2189 29.5902 94.7091 29.4654 94.3554 29.2157C94.0086 28.9729 93.8352 28.6227 93.8352 28.1649C93.8352 27.8597 93.9323 27.617 94.1265 27.4366C94.3276 27.2563 94.6016 27.1661 94.9484 27.1661C95.0524 27.1661 95.1391 27.1661 95.2085 27.1661C95.2848 27.1731 95.3749 27.1765 95.479 27.1765C95.7425 27.1765 96.0061 27.1037 96.2696 26.9581C96.5401 26.8193 96.7656 26.5558 96.9459 26.1674L97.1019 25.772L93.5439 16.3879C93.426 16.0688 93.367 15.7706 93.367 15.4932C93.367 15.0839 93.5161 14.7476 93.8144 14.484C94.1195 14.2135 94.4941 14.0782 94.938 14.0782C95.3402 14.0782 95.6524 14.1719 95.8743 14.3591C96.1032 14.5464 96.28 14.862 96.4049 15.3059L98.829 23.0255H98.881L101.305 15.2851C101.541 14.4805 102.03 14.0782 102.772 14.0782C103.209 14.0782 103.563 14.2066 103.833 14.4632C104.111 14.7198 104.249 15.0493 104.249 15.4515C104.249 15.722 104.194 16.0203 104.083 16.3463L100.66 25.6472C100.313 26.6043 99.9248 27.3707 99.4948 27.9464C99.0717 28.529 98.5654 28.9486 97.9759 29.2053C97.3932 29.4619 96.6962 29.5902 95.8847 29.5902Z" fill="url(#paint7_linear_467_3957)"/>
  <path d="M85.4369 25.6377C84.5075 25.6377 83.7029 25.4053 83.0232 24.9406C82.3435 24.469 81.8164 23.8032 81.4418 22.9431C81.0742 22.0831 80.8904 21.0566 80.8904 19.8636C80.8904 18.6845 81.0742 17.6684 81.4418 16.8153C81.8164 15.9553 82.347 15.2929 83.0336 14.8282C83.7203 14.3635 84.5283 14.1312 85.4577 14.1312C85.9987 14.1312 86.4911 14.2213 86.935 14.4017C87.3789 14.5751 87.7638 14.8178 88.0898 15.1299C88.4227 15.442 88.6794 15.8062 88.8597 16.2223H88.9221V11.8111C88.9221 11.2909 89.0643 10.8956 89.3487 10.6251C89.633 10.3546 89.9972 10.2194 90.4411 10.2194C90.885 10.2194 91.2491 10.3546 91.5335 10.6251C91.8178 10.8956 91.96 11.2909 91.96 11.8111V24.1395C91.96 24.6459 91.8178 25.0308 91.5335 25.2944C91.256 25.551 90.8954 25.6793 90.4515 25.6793C90.0145 25.6793 89.6504 25.551 89.3591 25.2944C89.0678 25.0308 88.9221 24.6459 88.9221 24.1395V23.4945H88.8701C88.7106 23.9107 88.4678 24.2817 88.1418 24.6077C87.8228 24.9268 87.4344 25.1799 86.9766 25.3672C86.5258 25.5475 86.0125 25.6377 85.4369 25.6377ZM86.4668 23.1928C86.9732 23.1928 87.4101 23.061 87.7777 22.7975C88.1453 22.527 88.4297 22.1455 88.6308 21.6531C88.8389 21.1537 88.9429 20.5641 88.9429 19.8844C88.9429 19.2116 88.8389 18.629 88.6308 18.1366C88.4297 17.6372 88.1453 17.2523 87.7777 16.9818C87.4101 16.7043 86.9732 16.5656 86.4668 16.5656C85.9605 16.5656 85.5201 16.7009 85.1456 16.9714C84.778 17.2419 84.4936 17.6268 84.2925 18.1262C84.0983 18.6186 84.0012 19.2047 84.0012 19.8844C84.0012 20.5641 84.0983 21.1537 84.2925 21.6531C84.4936 22.1455 84.778 22.527 85.1456 22.7975C85.5201 23.061 85.9605 23.1928 86.4668 23.1928Z" fill="url(#paint8_linear_467_3957)"/>
  <path d="M72.9868 25.668C72.1823 25.668 71.4783 25.5015 70.8749 25.1686C70.2715 24.8357 69.8033 24.3571 69.4704 23.7329C69.1375 23.1087 68.971 22.3631 68.971 21.4961V15.67C68.971 15.1498 69.1132 14.7545 69.3976 14.484C69.6819 14.2135 70.0461 14.0782 70.49 14.0782C70.9338 14.0782 71.298 14.2135 71.5823 14.484C71.8667 14.7545 72.0089 15.1498 72.0089 15.67V20.8615C72.0089 21.6036 72.1858 22.1689 72.5395 22.5573C72.9001 22.9457 73.4169 23.1399 74.0896 23.1399C74.5405 23.1399 74.9289 23.0393 75.2549 22.8382C75.5878 22.637 75.8409 22.3527 76.0143 21.9851C76.1947 21.6105 76.2848 21.1805 76.2848 20.695V15.67C76.2848 15.1498 76.427 14.7545 76.7114 14.484C76.9957 14.2135 77.3599 14.0782 77.8038 14.0782C78.2477 14.0782 78.6118 14.2135 78.8962 14.484C79.1805 14.7545 79.3227 15.1498 79.3227 15.67V24.1386C79.3227 24.638 79.1875 25.0195 78.917 25.2831C78.6534 25.5466 78.2997 25.6784 77.8558 25.6784C77.4258 25.6784 77.072 25.5466 76.7946 25.2831C76.5241 25.0195 76.3889 24.638 76.3889 24.1386V23.452H76.3264C76.1392 23.9167 75.893 24.3155 75.5878 24.6484C75.2826 24.9814 74.9115 25.2345 74.4746 25.4079C74.0446 25.5813 73.5486 25.668 72.9868 25.668Z" fill="url(#paint9_linear_467_3957)"/>
  <path d="M62.2603 22.6098V16.5964H61.6777C61.317 16.5964 61.0292 16.4924 60.8142 16.2843C60.6061 16.0763 60.5021 15.7988 60.5021 15.452C60.5021 15.0983 60.6061 14.8209 60.8142 14.6197C61.0292 14.4117 61.317 14.3076 61.6777 14.3076H62.2603V13.0696C62.2603 12.5771 62.3956 12.1922 62.6661 11.9148C62.9365 11.6304 63.3076 11.4882 63.7792 11.4882C64.2509 11.4882 64.622 11.6304 64.8924 11.9148C65.1629 12.1922 65.2982 12.5771 65.2982 13.0696V14.3076H66.3698C66.7304 14.3076 67.0148 14.4117 67.2229 14.6197C67.431 14.8209 67.535 15.0983 67.535 15.452C67.535 15.7988 67.431 16.0763 67.2229 16.2843C67.0148 16.4924 66.7304 16.5964 66.3698 16.5964H65.2982V21.9336C65.2982 22.3289 65.371 22.6167 65.5167 22.7971C65.6623 22.9774 65.8981 23.0814 66.2241 23.1092L66.4218 23.13C66.7963 23.1716 67.0807 23.2791 67.2749 23.4525C67.476 23.619 67.5766 23.8791 67.5766 24.2328C67.5766 24.531 67.4864 24.7807 67.3061 24.9819C67.1258 25.183 66.8726 25.3356 66.5466 25.4396C66.2276 25.5367 65.8531 25.5853 65.423 25.5853H65.319C64.3064 25.5853 63.5434 25.3356 63.0302 24.8362C62.5169 24.3368 62.2603 23.5947 62.2603 22.6098Z" fill="url(#paint10_linear_467_3957)"/>
  <path d="M53.7395 25.7102C52.7061 25.7102 51.801 25.5854 51.0242 25.3357C50.2473 25.079 49.6058 24.7357 49.0995 24.3057C48.6001 23.8687 48.2498 23.3763 48.0487 22.8284C48.0001 22.6896 47.9585 22.5509 47.9238 22.4122C47.8961 22.2666 47.8822 22.1244 47.8822 21.9857C47.8822 21.5695 48.0105 21.2366 48.2672 20.9869C48.5238 20.7303 48.8567 20.602 49.2659 20.602C49.5919 20.602 49.8659 20.6713 50.0878 20.81C50.3167 20.9488 50.5248 21.1846 50.712 21.5175C50.8716 21.899 51.1039 22.2145 51.4091 22.4642C51.7143 22.707 52.0715 22.8873 52.4807 23.0052C52.8899 23.1231 53.3338 23.1821 53.8124 23.1821C54.3742 23.1821 54.8666 23.0989 55.2897 22.9324C55.7128 22.7659 56.0422 22.5405 56.278 22.2562C56.5208 21.9649 56.6422 21.6354 56.6422 21.2678C56.6422 20.7754 56.4445 20.38 56.0492 20.0818C55.6608 19.7766 54.9949 19.5269 54.0516 19.3327L52.4599 19.0206C50.9617 18.7224 49.8416 18.216 49.0995 17.5017C48.3643 16.7873 47.9967 15.8717 47.9967 14.7551C47.9967 13.8395 48.2429 13.0419 48.7353 12.3622C49.2278 11.6756 49.904 11.1415 50.7641 10.76C51.631 10.3786 52.6194 10.1878 53.7291 10.1878C54.6447 10.1878 55.4735 10.3127 56.2156 10.5624C56.9647 10.8051 57.5958 11.1589 58.1091 11.6235C58.6223 12.0882 58.9899 12.6466 59.2119 13.2985C59.2882 13.5066 59.3263 13.739 59.3263 13.9956C59.3263 14.3701 59.2015 14.6753 58.9518 14.9111C58.709 15.14 58.3865 15.2545 57.9843 15.2545C57.6375 15.2545 57.3427 15.1816 57.0999 15.036C56.8641 14.8834 56.6595 14.6476 56.4861 14.3285C56.3197 13.954 56.1012 13.6488 55.8307 13.413C55.5671 13.1772 55.2585 13.0038 54.9047 12.8928C54.551 12.7818 54.1591 12.7263 53.7291 12.7263C53.2159 12.7263 52.765 12.8026 52.3766 12.9552C51.9882 13.1009 51.6865 13.3124 51.4715 13.5899C51.2565 13.8604 51.149 14.1829 51.149 14.5574C51.149 15.0221 51.3432 15.4036 51.7316 15.7018C52.12 15.9931 52.7581 16.2289 53.6459 16.4093L55.2273 16.7318C56.8225 17.0439 57.9808 17.5363 58.7021 18.2091C59.4234 18.8819 59.7841 19.787 59.7841 20.9245C59.7841 21.9024 59.5413 22.7521 59.0558 23.4734C58.5703 24.1878 57.8733 24.7392 56.9647 25.1276C56.063 25.516 54.988 25.7102 53.7395 25.7102Z" fill="url(#paint11_linear_467_3957)"/>
  <defs>
    <linearGradient id="paint0_linear_467_3957" x1="21.0054" y1="19.4122" x2="32.2283" y2="18.052" gradientUnits="userSpaceOnUse">
      <stop stop-color="#042CFF"/>
      <stop offset="1" stop-color="#00D1FF"/>
    </linearGradient>
    <linearGradient id="paint1_linear_467_3957" x1="20.6936" y1="19.989" x2="12.4796" y2="26.2499" gradientUnits="userSpaceOnUse">
      <stop stop-color="#042CFF"/>
      <stop offset="1" stop-color="#00D1FF"/>
    </linearGradient>
    <linearGradient id="paint2_linear_467_3957" x1="18.056" y1="24.5772" x2="6.29435" y2="12.7421" gradientUnits="userSpaceOnUse">
      <stop stop-color="#042CFF"/>
      <stop offset="1" stop-color="#00D1FF"/>
    </linearGradient>
    <linearGradient id="paint3_linear_467_3957" x1="21.1254" y1="21.4265" x2="28.2518" y2="24.2267" gradientUnits="userSpaceOnUse">
      <stop stop-color="#042CFF"/>
      <stop offset="1" stop-color="#00D1FF"/>
    </linearGradient>
    <linearGradient id="paint4_linear_467_3957" x1="157.407" y1="32.7879" x2="152.522" y2="1.16944" gradientUnits="userSpaceOnUse">
      <stop stop-color="#042CFF"/>
      <stop offset="1" stop-color="#00D1FF"/>
    </linearGradient>
    <linearGradient id="paint5_linear_467_3957" x1="157.412" y1="32.7879" x2="152.527" y2="1.16944" gradientUnits="userSpaceOnUse">
      <stop stop-color="#042CFF"/>
      <stop offset="1" stop-color="#00D1FF"/>
    </linearGradient>
    <linearGradient id="paint6_linear_467_3957" x1="157.407" y1="32.7877" x2="152.522" y2="1.16919" gradientUnits="userSpaceOnUse">
      <stop stop-color="#042CFF"/>
      <stop offset="1" stop-color="#00D1FF"/>
    </linearGradient>
    <linearGradient id="paint7_linear_467_3957" x1="157.409" y1="32.7872" x2="152.524" y2="1.16873" gradientUnits="userSpaceOnUse">
      <stop stop-color="#042CFF"/>
      <stop offset="1" stop-color="#00D1FF"/>
    </linearGradient>
    <linearGradient id="paint8_linear_467_3957" x1="157.406" y1="32.7881" x2="152.522" y2="1.16962" gradientUnits="userSpaceOnUse">
      <stop stop-color="#042CFF"/>
      <stop offset="1" stop-color="#00D1FF"/>
    </linearGradient>
    <linearGradient id="paint9_linear_467_3957" x1="157.409" y1="32.7872" x2="152.525" y2="1.16873" gradientUnits="userSpaceOnUse">
      <stop stop-color="#042CFF"/>
      <stop offset="1" stop-color="#00D1FF"/>
    </linearGradient>
    <linearGradient id="paint10_linear_467_3957" x1="157.409" y1="32.7877" x2="152.525" y2="1.16923" gradientUnits="userSpaceOnUse">
      <stop stop-color="#042CFF"/>
      <stop offset="1" stop-color="#00D1FF"/>
    </linearGradient>
    <linearGradient id="paint11_linear_467_3957" x1="157.409" y1="32.7878" x2="152.524" y2="1.16931" gradientUnits="userSpaceOnUse">
      <stop stop-color="#042CFF"/>
      <stop offset="1" stop-color="#00D1FF"/>
    </linearGradient>
  </defs>
</svg>