<svg xmlns="http://www.w3.org/2000/svg" width="30" height="30" fill="none" viewBox="0 0 32 32" >
  <g>
    <path data-follow-fill="currentColor" d="M11.139 28H6.462a2.37 2.37 0 0 1-1.739-.723A2.37 2.37 0 0 1 4 25.538v-4.677c.985 0 1.846-.312 2.585-.938.738-.626 1.107-1.42 1.107-2.384 0-.965-.369-1.76-1.107-2.385A3.876 3.876 0 0 0 4 14.215V9.538c0-.676.241-1.256.723-1.738a2.37 2.37 0 0 1 1.739-.723h4.923c0-.862.297-1.59.892-2.185S13.6 4 14.46 4c.862 0 1.59.297 2.185.892s.892 1.323.892 2.185h4.924A2.37 2.37 0 0 1 24.2 7.8a2.37 2.37 0 0 1 .723 1.738v4.923c.862 0 1.59.298 2.185.893S28 16.677 28 17.538c0 .862-.297 1.59-.892 2.185s-1.323.892-2.185.892v4.924a2.37 2.37 0 0 1-.723 1.738 2.37 2.37 0 0 1-1.738.723h-4.677c0-1.026-.323-1.897-.97-2.615-.646-.718-1.43-1.077-2.354-1.077-.922 0-1.707.359-2.353 1.077-.647.718-.97 1.59-.97 2.615Z" fill="#3c434d"></path>
  </g>
</svg>