<?xml version="1.0" standalone="no"?><!DOCTYPE svg PUBLIC "-//W3C//DTD SVG 1.1//EN" "http://www.w3.org/Graphics/SVG/1.1/DTD/svg11.dtd"><svg t="1759979416798" class="icon" viewBox="0 0 1024 1024" version="1.1" xmlns="http://www.w3.org/2000/svg" p-id="7924" xmlns:xlink="http://www.w3.org/1999/xlink" width="16" height="16"><path d="M426.688 330.688a32 32 0 0 0 0 64h170.624a32 32 0 0 0 0-64H426.624z" fill="#dbdbdb" p-id="7925"></path><path d="M393.92 96c-32.384 0-54.08 0-74.88 5.12a174.72 174.72 0 0 0-27.52 9.152c-19.712 8.448-36.608 21.44-61.312 40.512l-4.416 3.328c-44.608 34.368-80 61.632-105.984 86.016-26.56 24.96-46.144 49.408-56.448 79.36a183.36 183.36 0 0 0-9.28 76.16c2.816 31.36 16.128 59.52 36.16 89.344 19.52 29.184 47.488 62.976 82.688 105.472l173.12 209.088c31.36 37.952 57.216 69.12 80.96 90.496 24.896 22.464 51.584 37.952 84.992 37.952s60.096-15.488 84.992-37.952c23.68-21.376 49.536-52.544 80.96-90.496l173.12-209.088c35.2-42.496 63.168-76.288 82.688-105.472 20.032-29.824 33.28-57.92 36.16-89.408a183.36 183.36 0 0 0-9.28-76.16c-10.24-29.888-29.888-54.4-56.448-79.296-25.984-24.384-61.44-51.648-106.048-86.016l-4.352-3.328c-24.768-19.072-41.6-32.064-61.312-40.512a174.656 174.656 0 0 0-27.52-9.216c-20.8-5.12-42.496-5.12-74.88-5.056h-236.16z m-59.712 67.2c12.416-3.008 25.92-3.2 63.552-3.2h228.48c37.632 0 51.2 0.192 63.552 3.2 6.016 1.536 11.84 3.456 17.472 5.888 11.392 4.864 21.632 12.48 50.56 34.688 46.272 35.648 79.104 60.992 102.592 83.008 23.104 21.76 34.24 37.76 39.68 53.44 5.568 16.128 7.616 32.96 6.08 49.664-1.472 16.192-8.32 33.792-25.6 59.52-17.472 26.112-43.328 57.408-79.936 101.568l-170.368 205.824c-33.408 40.32-56.32 67.84-76.16 85.76-19.008 17.152-30.976 21.44-42.112 21.44-11.136 0-23.104-4.288-42.176-21.44-19.84-17.92-42.688-45.44-76.16-85.76L223.36 550.976c-36.608-44.16-62.464-75.456-80-101.568-17.216-25.728-24.064-43.328-25.6-59.52-1.472-16.704 0.64-33.536 6.144-49.664 5.376-15.744 16.576-31.68 39.68-53.44 23.488-22.016 56.32-47.36 102.656-83.008 28.8-22.208 39.04-29.824 50.56-34.688a110.72 110.72 0 0 1 17.408-5.824z" fill="#dbdbdb" p-id="7926"></path></svg>